<?xml version="1.0" encoding="UTF-8"?>
<svg id="Capa_2" data-name="Capa 2" xmlns="http://www.w3.org/2000/svg" viewBox="0 0 214.67 167.9">
  <defs>
    <style>
      .cls-1, .cls-2 {
        fill: #1f140f;
      }

      .cls-2, .cls-3 {
        stroke: #1f140f;
        stroke-miterlimit: 10;
        stroke-width: .2px;
      }

      .cls-3 {
        fill: none;
      }
    </style>
  </defs>
  <g id="Capa_12" data-name="Capa 12">
    <path class="cls-2" d="M213.95,126.43c-8.34,2.2-13.77,1.93-16.29-.82-2.52-2.74-3.78-7.29-3.78-13.65V60.96c0-10.74-2.09-19.79-6.25-27.14-4.17-7.35-12.17-14.31-24.02-20.89-5.26-2.85-10.91-5.1-16.94-6.74-6.04-1.65-12.12-2.9-18.26-3.78-6.14-.87-12.07-1.48-17.77-1.81-5.71-.33-10.75-.49-15.13-.49-6.36,0-13.32,.55-20.89,1.64-7.57,1.1-14.92,2.52-22.04,4.28-7.13,1.76-13.65,3.67-19.58,5.75-5.92,2.09-10.53,4.11-13.82,6.09-3.32,1.76-5.19,4.22-5.19,4.22v29.01H63.06v-10.75c3.73-.84,10.9-2.43,15.01-3.06,5.7-.87,10.86-1.32,15.46-1.32,6.8,0,13.1,.55,18.92,1.64,5.81,1.1,11.13,2.85,15.96,5.26,3.07,1.54,4.98,4.11,5.75,7.73,.38,1.81,.61,3.46,.79,5.06l.12,20.4c-.02,.1-.03,.2-.05,.3H15.47l-.5,.49c-.15,0-4.91,4.51-6.81,7.15C2.79,91.45,.1,100.89,.1,112.29v54.92l214.46-.46-.62-40.32Zm-87.61,40.78c-3.38,0-6.15-.9-8.53-2.23-.16,.06-.3,.16-.46,.22-1.2,.63-2.49,.91-3.86,.9-.79,.18-1.58,.37-2.5,.37-3.17,0-5.57-1.16-7.28-2.9-.73,.04-1.42,.19-2.16,.18,0,0,0,0,0,0-5.26,1.06-10.87,.96-16.03-.23-6.58-1.52-12.43-5.98-15.66-11.85-1.84-2.06-3.45-4.31-4.6-6.66-1.26-2.6-2.51-5.36-3.02-8.24-.89-5.08-.97-8.28,0-13.36,.16-.83,.38-1.61,.69-2.39,.72-1.89,1.44-3.93,2.53-5.66,1.52-2.41,3.34-4.77,5.56-6.59,3.35-2.74,6.52-4.8,10.45-6.49,4.08-1.76,8.15-3.58,12.56-4.29,.02-.02,.06-.01,.08-.03-.3-.24-.43-.65-.06-.97,.75-.66,1.73-.72,2.68-.8,1.12-.1,2.25-.13,3.37-.09,2.28,.08,4.49,.53,6.63,1.3,.12,.04,.17,.14,.24,.22,1.34,.21,2.68,.5,4,1,4.99,1.87,9.82,4.43,13.38,8.52,3.42,3.94,6.37,8.46,7.61,13.61,1.42,3.96,1.83,8.08,1.57,12.24,15.43,6.57,13.03,34.23-7.19,34.23Zm37.95-22.31c-4.6,0-4.59-7.13,0-7.13s4.59,7.13,0,7.13Z"/>
    <path class="cls-3" d="M107.78,154.75l-16.89-.04v-20.36c-6.4-3.68-10.49-10.38-10.51-17.48-.03-9.97,7.99-19.63,18.65-19.63,10.67,0,18.62,9.67,18.65,19.63,.02,7.17-4.14,13.95-10.57,17.44v20.88"/>
    <polygon class="cls-1" points="0 167.9 214.65 167.9 214.65 166.24 0 165.85 0 167.9"/>
    <polygon class="cls-1" points="91.72 97.25 94.07 97.91 94.53 97.83 97.16 97.35 99.21 97.25 101.45 97.42 104.81 98.16 107.6 99.52 109.26 100.49 110.81 101.81 112.85 103.72 114.69 106.47 116.06 108.91 116.96 111.7 117.55 114.19 117.68 116.88 117.56 118.97 117.16 121.29 116.47 123.54 115.42 125.89 113.91 128.44 112.25 130.35 109.99 132.38 107.86 133.89 107.11 134.32 107.11 138.39 107.11 149.08 107.11 154.75 104.7 154.75 101.01 154.74 92.97 154.72 90.89 154.71 90.89 145.42 90.9 134.35 88.54 132.77 86.75 131.26 85.05 129.45 83.73 127.68 82.37 125.41 81.15 122.17 80.5 118.96 80.38 115.99 80.78 112.93 81.48 110.3 82.62 107.76 83.94 105.35 85.94 103.06 87.95 101.14 89.77 99.92 91.59 98.91 92.72 98.31 91.82 98.32 83.06 96.74 68.26 101.6 54.35 132.48 65.87 158.9 83.94 165.06 109.76 166.94 137.97 166.88 167.73 150.16 176.5 125.03 124.56 89.08 91.72 97.25"/>
  </g>
</svg>