<svg xmlns="http://www.w3.org/2000/svg" id="Capa_2" data-name="Capa 2" viewBox="0 0 257.01 58.71">
  <defs fill="#ffffff">
    <style>
      .cls-1, .cls-2 {
        fill: #ffffff;
      }

      .cls-2, .cls-3 {
        stroke: #ffffff;
        stroke-miterlimit: 10;
        stroke-width: .2px;
      }

      .cls-3 {
        fill: none;
      }
    </style>
  </defs>
  <g id="Capa_13" data-name="Capa 13">
    <g>
      <path class="cls-1" d="M59.43,40.4c0,2.45-.48,4.63-1.44,6.52-.96,1.89-2.25,3.51-3.88,4.84-1.63,1.33-3.48,2.45-5.56,3.36-2.08,.91-4.25,1.63-6.52,2.16-2.27,.53-4.53,.91-6.8,1.12-2.27,.21-4.36,.32-6.28,.32-2.67,0-5.15-.15-7.44-.44-2.29-.29-4.55-.76-6.76-1.4-2.21-.64-4.48-1.47-6.8-2.48-2.32-1.01-4.87-2.24-7.64-3.68l5.12-10.88c2.67,1.17,5.08,2.2,7.24,3.08,2.16,.88,4.15,1.61,5.96,2.2,1.81,.59,3.47,1.03,4.96,1.32,1.49,.29,2.91,.44,4.24,.44,1.81,0,3.68-.13,5.6-.4,1.92-.27,3.65-.65,5.2-1.16,1.55-.51,2.81-1.17,3.8-2,.99-.83,1.48-1.8,1.48-2.92s-.56-1.93-1.68-2.6-2.67-1.21-4.64-1.64c-1.39-.27-2.88-.49-4.48-.68-1.6-.19-3.25-.36-4.96-.52-.91-.11-1.84-.2-2.8-.28-.96-.08-1.92-.17-2.88-.28-2.72-.32-5.43-.8-8.12-1.44-2.69-.64-5.11-1.56-7.24-2.76-2.13-1.2-3.85-2.76-5.16-4.68-1.31-1.92-1.96-4.35-1.96-7.28,0-2.45,.48-4.6,1.44-6.44,.96-1.84,2.23-3.41,3.8-4.72,1.57-1.31,3.39-2.39,5.44-3.24,2.05-.85,4.17-1.53,6.36-2.04,2.19-.51,4.36-.85,6.52-1.04,2.16-.19,4.15-.28,5.96-.28,5.01,0,9.8,.61,14.36,1.84,4.56,1.23,9.29,3.15,14.2,5.76l-4.88,10.16c-4.16-2.03-8.23-3.53-12.2-4.52-3.97-.99-7.8-1.48-11.48-1.48-2.88,0-5.24,.19-7.08,.56-1.84,.37-3.29,.84-4.36,1.4-1.07,.56-1.8,1.16-2.2,1.8-.4,.64-.6,1.23-.6,1.76,0,.91,.56,1.65,1.68,2.24,1.12,.59,2.45,1.04,4,1.36,1.55,.32,3.13,.55,4.76,.68,1.63,.13,2.97,.23,4.04,.28,.27,0,.48,.01,.64,.04,.16,.03,.32,.04,.48,.04,1.87,.16,3.88,.36,6.04,.6,2.16,.24,4.29,.6,6.4,1.08,2.11,.48,4.13,1.12,6.08,1.92,1.95,.8,3.67,1.84,5.16,3.12,1.49,1.28,2.68,2.84,3.56,4.68,.88,1.84,1.32,4.04,1.32,6.6Z" fill="#ffffff"/>
      <path class="cls-1" d="M156.22,13.44V58.07h-16.16l-.08-44.64h-23.84V1.92h63.91V13.44h-23.84Z" fill="#ffffff"/>
      <path class="cls-1" d="M183.9,57.99V18.56h14.4V57.99h-14.4Zm14.64-50.96c0,1.01-.2,1.95-.6,2.8-.4,.85-.95,1.59-1.64,2.2-.69,.61-1.47,1.09-2.32,1.44-.85,.35-1.76,.52-2.72,.52s-1.87-.17-2.72-.52c-.85-.35-1.63-.83-2.32-1.44-.69-.61-1.24-1.35-1.64-2.2-.4-.85-.6-1.79-.6-2.8s.2-1.95,.6-2.8c.4-.85,.93-1.6,1.6-2.24,.67-.64,1.44-1.13,2.32-1.48,.88-.35,1.8-.52,2.76-.52s1.87,.17,2.72,.52c.85,.35,1.63,.84,2.32,1.48,.69,.64,1.24,1.39,1.64,2.24,.4,.85,.6,1.79,.6,2.8Z" fill="#ffffff"/>
      <path class="cls-1" d="M242.21,57.99l-11.04-11.12-11.2,11.12h-14.08v-2l17.44-17.68-17.44-17.68v-2.08h15.12l11.04,11.28,11.04-11.28h13.92v2.08l-17.36,17.68,17.36,17.68v2h-14.8Z" fill="#ffffff"/>
    </g>
    <path class="cls-2" d="M119.19,48.39c-2.03,.53-3.35,.47-3.96-.2-.61-.67-.92-1.77-.92-3.32v-12.4c0-2.61-.51-4.81-1.52-6.6-1.01-1.79-2.96-3.48-5.84-5.08-1.28-.69-2.65-1.24-4.12-1.64-1.47-.4-2.95-.71-4.44-.92-1.49-.21-2.93-.36-4.32-.44-1.39-.08-2.61-.12-3.68-.12-1.55,0-3.24,.13-5.08,.4-1.84,.27-3.63,.61-5.36,1.04-1.73,.43-3.32,.89-4.76,1.4-1.44,.51-2.56,1-3.36,1.48-.81,.43-1.26,1.03-1.26,1.03v7.05h11.93v-2.61c.91-.21,2.65-.59,3.65-.74,1.39-.21,2.64-.32,3.76-.32,1.65,0,3.19,.13,4.6,.4,1.41,.27,2.71,.69,3.88,1.28,.75,.37,1.21,1,1.4,1.88,.09,.44,.15,.84,.19,1.23l.03,4.96s0,.05-.01,.07h-29.07l-.12,.12s-1.19,1.1-1.66,1.74c-1.31,1.81-1.96,4.11-1.96,6.88v13.35l52.15-.11-.15-9.8Zm-21.3,9.91c-.82,0-1.5-.22-2.07-.54-.04,.02-.07,.04-.11,.05-.29,.15-.6,.22-.94,.22-.19,.04-.39,.09-.61,.09-.77,0-1.35-.28-1.77-.71-.18,0-.35,.05-.53,.04,0,0,0,0,0,0-1.28,.26-2.64,.23-3.9-.06-1.6-.37-3.02-1.45-3.81-2.88-.45-.5-.84-1.05-1.12-1.62-.31-.63-.61-1.3-.73-2-.22-1.24-.24-2.01,0-3.25,.04-.2,.09-.39,.17-.58,.18-.46,.35-.96,.62-1.38,.37-.59,.81-1.16,1.35-1.6,.81-.67,1.59-1.17,2.54-1.58,.99-.43,1.98-.87,3.05-1.04,0,0,.01,0,.02,0-.07-.06-.1-.16-.02-.24,.18-.16,.42-.18,.65-.2,.27-.02,.55-.03,.82-.02,.56,.02,1.09,.13,1.61,.32,.03,.01,.04,.03,.06,.05,.33,.05,.65,.12,.97,.24,1.21,.45,2.39,1.08,3.25,2.07,.83,.96,1.55,2.06,1.85,3.31,.34,.96,.45,1.96,.38,2.98,3.75,1.6,3.17,8.32-1.75,8.32Zm9.23-5.42c-1.12,0-1.12-1.73,0-1.73s1.12,1.73,0,1.73Z" fill="#ffffff"/>
    <path class="cls-3" d="M93.37,55.28h-4.11s0-4.96,0-4.96c-1.56-.9-2.55-2.52-2.56-4.25,0-2.42,1.94-4.77,4.53-4.77,2.59,0,4.53,2.35,4.53,4.77,0,1.74-1.01,3.39-2.57,4.24v5.08" fill="#ffffff"/>
    <polygon class="cls-1" points="67.02 58.48 119.51 58.48 119.51 58.07 67.02 57.98 67.02 58.48" fill="#ffffff"/>
    <polygon class="cls-1" points="89.47 41.3 90.16 41.46 90.79 41.32 91.83 41.34 93.33 41.85 94.11 42.41 95.05 43.54 95.6 44.81 95.78 46.07 95.65 47.14 95.23 48.26 94.46 49.35 93.39 50.21 93.21 50.31 93.21 51.3 93.21 53.9 93.21 55.28 92.62 55.28 91.73 55.28 89.77 55.27 89.27 55.27 89.27 53.01 89.27 50.32 88.26 49.57 87.53 48.7 86.9 47.36 86.74 46.58 86.81 45.11 87.26 43.85 88.06 42.71 88.56 42.27 89.12 41.79 87.36 41.18 83.76 42.36 80.38 49.87 83.18 56.29 87.58 57.79 93.86 58.25 100.71 58.23 107.95 54.16 110.08 48.06 97.45 39.31 89.47 41.3" fill="#ffffff"/>
  </g>
</svg>